<svg width="220" height="80" viewBox="0 0 220 80" fill="none" xmlns="http://www.w3.org/2000/svg">
  <rect width="220" height="80" rx="20" fill="#F7F1E8"/>
  <path d="M34 16C34 14.895 34.895 14 36 14H58C59.105 14 60 14.895 60 16V62C60 63.105 59.105 64 58 64H36C34.895 64 34 63.105 34 62V16Z" fill="#1F7A74"/>
  <rect x="38" y="22" width="18" height="36" rx="8" fill="#F4B350"/>
  <circle cx="47" cy="32" r="4" fill="#1B1A17"/>
  <circle cx="47" cy="44" r="4" fill="#1B1A17"/>
  <circle cx="47" cy="56" r="4" fill="#1B1A17"/>
  <path d="M60 28H84C92.836 28 100 35.164 100 44C100 52.836 92.836 60 84 60H60" stroke="#D4573B" stroke-width="6" stroke-linecap="round"/>
  <path d="M112 24H200" stroke="#1B1A17" stroke-width="2" stroke-linecap="round"/>
  <path d="M112 34H200" stroke="#1B1A17" stroke-width="2" stroke-linecap="round"/>
  <path d="M112 44H200" stroke="#1B1A17" stroke-width="2" stroke-linecap="round"/>
  <path d="M112 54H200" stroke="#1B1A17" stroke-width="2" stroke-linecap="round"/>
  <circle cx="140" cy="34" r="4.5" fill="#1F7A74"/>
  <circle cx="170" cy="44" r="4.5" fill="#1F7A74"/>
</svg>
